HIERARCHY
ROOT Spine
{
    OFFSET 0.0 0.0 -0.0
    CHANNELS 6 Xposition Yposition Zposition Zrotation Xrotation Yrotation
    JOINT ShoulderCenter
    {
        OFFSET 0.0 32.617279052734375 0.0
        CHANNELS 3 Zrotation Xrotation Yrotation
        JOINT LeftShoulder
        {
            OFFSET 18.428611755371094 0.0 0.0
            CHANNELS 3 Zrotation Xrotation Yrotation
            JOINT LeftElbow
            {
                OFFSET 32.48215866088867 0.0 0.0
                CHANNELS 3 Zrotation Xrotation Yrotation
                JOINT LeftHand
                {
                    OFFSET 33.74822998046875 0.0 0.0
                    CHANNELS 3 Zrotation Xrotation Yrotation
                    End Site
                    {
                        OFFSET 13.499292373657227 0.0 0.0
                    }
                }
            }
        }
        JOINT RightShoulder
        {
            OFFSET -18.428611755371094 0.0 0.0
            CHANNELS 3 Zrotation Xrotation Yrotation
            JOINT RightElbow
            {
                OFFSET -32.48215866088867 0.0 0.0
                CHANNELS 3 Zrotation Xrotation Yrotation
                JOINT RightHand
                {
                    OFFSET -33.74822998046875 0.0 0.0
                    CHANNELS 3 Zrotation Xrotation Yrotation
                    End Site
                    {
                        OFFSET -13.499292373657227 0.0 0.0
                    }
                }
            }
        }
        End Site
        {
            OFFSET 0.0 13.046911239624023 0.0
        }
    }
    JOINT LeftHip
    {
        OFFSET 16.98884301678807 -16.98884301678807 0.0
        CHANNELS 3 Zrotation Xrotation Yrotation
        JOINT LeftKnee
        {
            OFFSET 0.0 -42.42488098144531 0.0
            CHANNELS 3 Zrotation Xrotation Yrotation
            JOINT LeftFoot
            {
                OFFSET 0.0 -51.24627685546875 0.0
                CHANNELS 3 Zrotation Xrotation Yrotation
                End Site
                {
                    OFFSET 0.0 0.0 20.498512268066406
                }
            }
        }
    }
    JOINT RightHip
    {
        OFFSET -16.98884301678807 -16.98884301678807 0.0
        CHANNELS 3 Zrotation Xrotation Yrotation
        JOINT RightKnee
        {
            OFFSET 0.0 -42.42488098144531 0.0
            CHANNELS 3 Zrotation Xrotation Yrotation
            JOINT RightFoot
            {
                OFFSET 0.0 -51.24627685546875 0.0
                CHANNELS 3 Zrotation Xrotation Yrotation
                End Site
                {
                    OFFSET 0.0 0.0 20.498512268066406
                }
            }
        }
    }
}
MOTION
Frames: 12
Frame Time: 0.03333333333333333
20.700000762939453 16.69999885559082 4.0 5.972299044544982 4.374923537675449 -76.45241924447068 -4.6889270242009764e-08 -7.225999741721255e-08 8.63886992023929 103.00484584683623 26.692752006001214 -179.67790741240574 -2.1731701153277318e-06 -4.547047357719696e-06 24.706024774664353 2.3854160110976376e-15 6.3611093629270335e-15 -1.3241718894150476e-31 -104.49597526605936 7.509081882131448 -173.86321172399607 1.4645811618425603e-06 4.821890239822742e-06 -37.5674040910479 4.4139062980501586e-32 -1.5902773407317584e-15 3.1805546814635168e-15 0.04770121958889172 -10.825275125931494 -0.5289374276459716 5.166496740438854 5.169647668755377 -12.8523721817501 0.0 0.0 -3.072620818982211e-15 4.719366145416435 -13.905424298517827 -8.648576559407793 -8.566809375768162 7.344899277941959 28.342236805555522 3.9756933518293955e-16 -1.9878466759146977e-16 -1.838758175221095e-15
20.5 16.599998474121094 4.300000190734863 6.494941155814549 4.892642922130857 -76.68990570375358 -1.464764777201077e-07 -7.226868776109549e-08 8.256061864034507 106.45369302186513 26.65277298470877 -178.24653928386348 -2.681169872548858e-06 3.80425446793931e-06 25.2889999589853 2.385416011097637e-15 6.361109362927033e-15 -1.3241718894150476e-31 -107.33384175843021 6.787929118691611 -175.6164243022579 -2.1499580308799916e-06 -4.020027580796814e-06 -38.85240232467064 0.0 0.0 0.0 0.501560267090661 -11.322136753247971 -0.6142051312621861 4.78644212412239 5.272755668078513 -12.81572988732262 -1.7912636093588565e-32 -3.975693351829396e-16 -5.1629658391237604e-15 4.995036035544403 -14.615268950674785 -9.376484653810556 -8.766038154556355 7.5752237048974 29.763622530742012 3.975693351829396e-16 -1.4138293610941915e-32 -4.075085685625131e-15
20.299999237060547 16.5 4.599999904632568 6.86369141465846 5.2523813230316145 -76.40159629726604 -5.238671737772231e-07 5.603722666418143e-07 7.741680262140894 110.52274450865617 26.74940490933573 -175.507919385781 -1.5921471795303973e-06 4.352914237883951e-07 24.42606120204172 -1.5902773407317582e-15 8.827812596100317e-32 -6.361109362927033e-15 -111.02872221015187 7.043481233200409 -177.64123906113997 2.458445863360992e-06 -3.0345781304056295e-06 -40.09647870101044 6.361109362927032e-15 0.0 0.0 0.6749204638908555 -11.886171373664627 0.07417036080803062 4.971754284013364 5.544940659751276 -13.801928040860473 0.0 0.0 -8.074074115687902e-15 5.488727461448549 -14.995764397764658 -9.264242497651091 -9.367408885640378 7.632021287877174 29.566320251378894 1.3448620751871577e-32 7.951386703658792e-16 -1.9381505090168305e-15
19.899999618530273 16.5 5.0 6.514812245735829 5.6043580552321135 -76.44361344081308 -8.093595838569815e-07 1.0216042116039834e-06 7.271274562794186 114.90772524431002 29.602304295571223 -172.5603351026606 3.1811991513397137e-06 -2.1428798962124987e-06 23.967833816082162 2.3854160110976376e-15 0.0 0.0 -115.99811025852716 6.529899867069796 -179.6675733056448 -5.36164259375464e-06 -3.6431327473640037e-06 -41.60350219596306 0.0 6.3611093629270335e-15 0.0 1.0077094518794765 -11.47764891517441 0.5493419073650762 4.908455025190931 5.5356329815729195 -13.89978286407031 -2.564182137746668e-32 3.975693351829396e-16 7.390751820842225e-15 5.760001882752382 -14.852936207453768 -10.315630913828077 -9.59630681506743 7.961712122845223 31.062794226360282 -9.483001812217137e-33 7.951386703658792e-16 1.3666445896913548e-15
19.600000381469727 16.30000114440918 5.299999713897705 6.16545159634162 5.956195506585193 -76.44134722865378 4.2180558348991344e-07 -3.3909291626954583e-07 6.624573559999023 118.96753727615355 34.14841756188035 -168.18316985400025 4.371228425778689e-07 4.860264335356746e-07 23.045360394586666 1.5902773407317584e-15 -8.827812596100317e-32 -6.3611093629270335e-15 -121.94552794556239 6.421011740705189 177.26515519157246 -1.7336548252708212e-06 1.8777480213025636e-06 -43.03496987651493 -3.1805546814635168e-15 -6.3611093629270335e-15 -1.7655625192200634e-31 1.6013335133932933 -11.125031780725417 -0.01598284434874711 4.420110263298867 5.9364273562960115 -14.752416950353311 3.975693351829396e-16 1.9116869562355913e-32 5.510062504801054e-15 6.21780270114864 -14.46316630137967 -9.337092685460629 -9.595198940095418 8.352119197791911 31.644816659010754 3.9756933518293955e-16 -7.951386703658791e-16 -2.484808344893372e-16
19.30000114440918 16.30000114440918 5.600000381469727 5.4653684873648745 6.31160260035998 -76.87222126905023 -1.1440807060002046e-07 -1.2918411600847533e-07 6.70119601532803 122.87622720998209 39.165280846689726 -161.73159271153165 -1.649398564692551e-07 2.607110249655365e-06 20.4842513008168 -7.951386703658792e-16 -4.4139062980501586e-32 6.3611093629270335e-15 -128.76030791162802 7.592698748077834 173.64562825075544 6.357620563397005e-07 2.2531247700815264e-06 -43.70643379100557 -1.5902773407317584e-15 -4.4139062980501586e-32 3.1805546814635168e-15 2.1374745516239284 -10.772014391565726 0.2715851478168442 4.5323567070519015 6.958867822760862 -17.811302693449992 7.951386703658792e-16 -1.4698652808936564e-32 -2.1182991140216e-15 6.860491739044912 -13.665195682588614 -7.953915966721351 -9.562972577572815 8.599667357522573 31.2807430917621 1.9878466759146977e-16 9.939233379573489e-17 -3.0066180973209805e-15
18.799999237060547 16.200000762939453 6.0 4.060480371822737 6.498603555698755 -76.92859066100164 4.1632770388335695e-07 -4.964886202400813e-07 5.756402618315877 127.89998932973239 43.65644814254364 -155.70664677590204 1.8005527525404298e-06 -5.064040577904599e-06 18.16872688385864 1.5902773407317584e-15 1.7655625192200634e-31 1.2722218725854067e-14 -136.38633005139278 8.91199297029564 169.59382144559024 -3.7954379928261234e-06 2.830866969395738e-07 -43.96734600407799 1.5902773407317584e-15 0.0 0.0 2.363420052526928 -8.965236641822013 -1.8357477336745542 4.429297924713301 7.1936706586845025 -17.916664398070623 3.9756933518293955e-16 -9.00885172160628e-33 -2.596624720413574e-15 7.312554318280085 -12.613234342475732 -7.480216952498556 -9.917767851271051 9.93975111180485 35.94484565125225 -4.969616689786746e-16 7.951386703658794e-16 1.4287647983136894e-16
18.299999237060547 16.100000381469727 6.300000190734863 2.827125064558329 6.681247527797186 -77.57756084432567 4.91967962317529e-07 -3.866501419355365e-07 5.50676880257811 129.21734933168423 50.227831344910186 -146.7940826974798 -9.909785561409413e-08 1.803622611786372e-06 17.19256536129643 -3.1805546814635168e-15 0.0 0.0 -143.01808165479852 13.38398499527403 164.92419610305308 -1.9774731670605517e-06 -1.7772261146684718e-06 -43.44129411250051 0.0 0.0 0.0 2.913334576679894 -7.219036480042508 -3.8382522906312095 4.053774976146236 7.225268422115259 -17.863452640663834 -2.1121231309029078e-32 3.975693351829396e-16 6.087780444988762e-15 8.156621175679097 -12.111509969953332 -7.797570578653502 -10.778753459524019 11.660778196245818 40.781664643559765 9.939233379573492e-17 1.697241801618408e-33 1.956786571603531e-15
17.600000381469727 16.100000381469727 6.700000286102295 1.4144249184073585 6.687294463021141 -78.25009450950046 -2.8006572135103853e-08 2.36663810762721e-07 5.655256306141087 130.015253094419 54.12765716085387 -137.59551231160486 3.427417082354773e-06 -2.6587467479625406e-06 17.319871188980333 -3.1805546814635168e-15 1.7655625192200634e-31 -6.3611093629270335e-15 -149.3765695800239 18.709021843020075 160.84362239856395 3.6432993212215507e-07 2.472008268922077e-06 -43.47152849782627 -3.975693351829396e-16 0.0 0.0 3.0445926478120544 -5.071244951865493 -6.809677838120411 3.868947733806721 7.657613504617406 -18.52070800775304 7.951386703658789e-16 3.975693351829394e-16 -7.715329910893919e-15 8.476612580024561 -11.183873874771072 -7.295761198673239 -10.98855979402046 13.38473922494095 45.18935793999786 1.9878466759146977e-16 9.93923337957349e-17 7.802298202965188e-15
16.899999618530273 16.200000762939453 6.899999618530273 0.17683907071724805 6.863661085337812 -78.3071194099571 2.2305914196902358e-07 -6.582134003443942e-07 5.336117225630563 137.9524867387619 53.631284819755756 -135.08159830682501 7.788060990910709e-07 1.6134808622200171e-06 19.359226987174075 0.0 0.0 0.0 -153.40319940443777 26.441257191623894 156.28571480961472 -1.521541332572584e-06 -1.548251149643863e-06 -42.279737157756045 0.0 2.9817700138720468e-15 0.0 3.4552318929356853 -3.3454243812896607 -9.450354635795648 3.6290872134694405 8.019132126666191 -19.271120608607127 -7.951386703658792e-16 2.155227684594804e-32 -3.1060104311167155e-15 9.20033132000689 -10.607801739378193 -6.666829457461386 -11.39733529159926 15.3373506241873 48.20933756434217 -1.9310840053969444e-32 1.5902773407317582e-15 1.3914926731402884e-15
16.100000381469727 16.5 7.0 -0.886857755365701 7.058673714352944 -78.64873003982443 -3.0993117821895146e-07 3.4772054506163267e-07 5.79102532924275 139.62802349747162 54.8708731502537 -127.78809225278924 6.189083257100187e-07 -2.433810029713175e-06 21.474872328244413 0.0 6.3611093629270335e-15 0.0 -156.13545855424852 34.348836236999425 151.23827978558506 -3.828007292561258e-07 6.056598539132723e-07 -41.64081353914987 -1.1927080055488188e-15 2.9817700138720468e-15 -1.5902773407317584e-15 3.8771209097482933 -1.6422600309048767 -12.13451432539189 3.439683921558474 8.256679901952912 -19.524202016046694 -3.975693351829397e-16 3.975693351829397e-16 -1.0436195048552167e-15 9.852924572743612 -10.018389430091375 -6.190213846677512 -11.82319116294424 16.62761562012753 50.819138189446555 7.951386703658791e-16 -1.5902773407317582e-15 2.9320738469741793e-15
15.199999809265137 17.0 7.100000381469727 -2.1276568437130656 7.0546927271684 -78.3774363185606 -5.005277149183934e-07 -5.49939542996346e-08 5.192794410351686 143.25558055461104 55.444445225329666 -123.34600118735571 2.598952891267587e-06 -2.374903169750472e-06 23.188628501544553 0.0 -3.1805546814635168e-15 0.0 -155.19092864501908 41.991743668557525 143.46760756128145 4.793102901192225e-07 -2.7945339789571285e-06 -39.48003778309226 -2.286023677301902e-15 1.987846675914697e-16 1.9878466759146976e-15 4.535061275291237 0.28461593730039175 -15.144473166762785 2.5324885108068846 7.995938325991139 -18.10426763572966 -1.1927080055488188e-15 -2.9224887403105544e-32 2.807833429729511e-15 10.366185185169092 -8.63675511939749 -4.2628353456684005 -11.322115961605249 16.811189679326258 49.79774127920577 -7.951386703658794e-16 1.5902773407317588e-15 -1.490885006936024e-16
